<svg width="360" height="104" viewBox="0 0 360 104" fill="none" xmlns="http://www.w3.org/2000/svg" role="img" aria-label="Bettivo">
  <g fill="#15294a" stroke="#15294a">
    <!-- Circular refresh arrows mark -->
    <g fill="none" stroke-width="7" stroke-linecap="round">
      <path d="M21.6 43.1 A26 26 0 0 1 71.6 47.5" />
      <path d="M70.4 60.9 A26 26 0 0 1 20.4 56.5" />
    </g>
    <path stroke="none" d="M71.6 47.5 L80 43 L75.5 55 Z" />
    <path stroke="none" d="M20.4 56.5 L12 61 L16.5 49 Z" />

    <!-- Trophy cup over the end of the wordmark -->
    <g stroke="none" transform="translate(254 5)">
      <!-- handles -->
      <path d="M8 4 C-3 4 -3 19 9 18 L9 13 C2 13 2 9 8 9 Z" />
      <path d="M40 4 C51 4 51 19 39 18 L39 13 C46 13 46 9 40 9 Z" />
      <!-- bowl -->
      <path d="M6 2 H42 V10 C42 24 34 30 24 30 C14 30 6 24 6 10 Z" />
      <!-- stem -->
      <rect x="21" y="29" width="6" height="7" />
      <!-- base -->
      <path d="M13 44 L35 44 L31 37 L17 37 Z" />
      <rect x="11" y="43" width="26" height="4" rx="1.5" />
    </g>

    <!-- Wordmark -->
    <text x="86" y="79" stroke="none"
      font-family="Arial, Helvetica, system-ui, sans-serif"
      font-size="56" font-weight="800" font-style="italic"
      letter-spacing="-1">BETTIVO</text>
  </g>
</svg>
